# xmcd
#
# Track frame offsets: 
#        150
#        12969
#        21564
#        37572
#        49673
#        72203
#        90672
#        106239
#        122331
#        135079
#        153040
#
# Disc length: 2250 seconds
#
# Revision: 0
# Processed by: cddbd v1.5.2PL0 Copyright (c) Steve Scherf et al.
# Submitted via: ExactAudioCopy v1.3
#
DISCID=7308c80b
DTITLE=Mitch Woods and His Rocket 88's - Mr. Boogie's Back In Town
DYEAR=1988
DGENRE=Rockabilly, Rhythm and Blues
TTITLE0=Chicken Shack Boogie
TTITLE1=Swell Lookin' Babe
TTITLE2=Broke
TTITLE3=What Can I Do
TTITLE4=I'Ve Got News For You
TTITLE5=Seven Nights To Rock
TTITLE6=Boppin' The Boogie
TTITLE7=Please Don't Leave Me
TTITLE8=Mr. Boogie's Back In Town
TTITLE9=In The Night
TTITLE10=I Want You To Be My Baby
EXTD=
EXTT0=
EXTT1=
EXTT2=
EXTT3=
EXTT4=
EXTT5=
EXTT6=
EXTT7=
EXTT8=
EXTT9=
EXTT10=
PLAYORDER=
